<?xml version="1.0" encoding="iso-8859-1"?>
<!-- Generator: Adobe Illustrator 19.0.0, SVG Export Plug-In . SVG Version: 6.00 Build 0)  -->
<svg version="1.1" id="Capa_1" xmlns="http://www.w3.org/2000/svg" xmlns:xlink="http://www.w3.org/1999/xlink" x="0px" y="0px"
	 viewBox="0 0 512.001 512.001" style="enable-background:new 0 0 512.001 512.001;" xml:space="preserve">
<path style="fill:#E39510;" d="M246.178,4.879c-51.997,105.58-57.72,120.175-57.72,120.175l-13.804-3.548
	c-2.592-0.73-5.374-0.222-7.542,1.372c-2.169,1.594-3.481,4.1-3.558,6.79c-0.584,20.445,0.249,23.563-7.64,51.905
	c-2.949,10.595-5.998,21.55-7.075,34.127c-6.748-2.92-16.91-11.322-44.197-20.825c-23.161-8.066-66.155-9.183-83.565-9.288
	c-3.661-0.016-7.315,0.459-10.847,1.429c-6.127,1.684-8.461,9.152-4.393,14.025c2.733,3.275,10.649,13.579,14.405,21.815
	c15.412,33.799,17.798,48.572,20.106,62.86c3.412,21.121,5.209,23.568,8.01,33.752c0,0-12.765,8.37-17.012,11.299
	c-1.815,1.251-5.664,4.488-5.763,9.6c-0.099,5.11,3.729,7.871,5.369,9.042c8.721,6.221,34.978,24.751,34.978,24.751l-9.275,23.124
	c-2.011,5.014,0.74,10.775,6.241,12.267c11.833,3.209,47.204,13.301,47.204,13.301c-4.247,9.618-3.688,8.479-5.941,12.921
	c-2.961,5.839,1.239,13.816,10.58,12.845l140.402-23.846l-7.111,1.208l48.565-211.335L256,0.229
	C252.043-0.691,247.974,1.235,246.178,4.879z"/>
<g>
	<path style="fill:#D68005;" d="M501.77,187.017c-3.532-0.971-7.186-1.446-10.847-1.429c-17.41,0.106-60.404,1.222-83.565,9.288
		c-27.288,9.503-37.45,17.905-44.197,20.825c-1.076-12.577-4.125-23.532-7.075-34.127c-7.889-28.342-7.056-31.46-7.64-51.905
		c-0.077-2.69-1.389-5.196-3.558-6.79c-2.169-1.595-4.951-2.102-7.543-1.373l-13.804,3.548c0,0-5.723-14.597-57.719-120.175
		c-1.795-3.644-5.865-5.571-9.822-4.65v249.796c-8.819-42.719-23.852-74.915-37.212-96.937c-2.179-3.594-6.86-4.74-10.455-2.559
		c-3.595,2.18-4.739,6.862-2.559,10.455c19.441,32.046,42.616,86.854,42.616,165.974v13.793
		c-18.435-50.089-49.686-87.837-71.21-109.617c-2.955-2.991-7.775-3.02-10.764-0.064c-2.99,2.955-3.018,7.775-0.064,10.764
		c26.84,27.16,69.612,80.391,79.804,151.541c-40.72-63.405-90.415-110.384-126.993-139.872
		c-45.207-36.443-79.814-54.356-81.265-55.101c-3.739-1.92-8.324-0.445-10.244,3.295c-1.92,3.738-0.447,8.326,3.291,10.247
		c0.344,0.178,34.938,18.113,78.99,53.674c36.427,29.406,86.223,76.635,126.268,140.476l-103.273,16.275
		c-0.067-3.151-0.787-6.291-2.156-9.211c-2.804-5.979-8.058-10.451-14.409-12.263c-1.028-0.293-18.512-5.28-32.824-9.304
		l3.581-8.929c3.939-9.819,0.616-21.057-8.028-27.157c-0.185-0.131-13.199-9.316-23.861-16.863
		c-5.353-3.79-11.24-6.764-17.466-8.826c-2.163-0.695-4.529-0.352-6.4,0.937c-0.008,0.005-0.015,0.01-0.023,0.016
		c-1.816,1.251-5.664,4.487-5.763,9.599c-0.099,5.11,3.729,7.872,5.369,9.042c8.721,6.221,34.978,24.751,34.978,24.751
		l-9.275,23.124c-2.011,5.014,0.74,10.775,6.242,12.267c11.833,3.209,47.204,13.301,47.204,13.301
		c-4.247,9.618-3.688,8.479-5.941,12.921c-2.961,5.839,1.239,13.817,10.58,12.845l133.29-22.639c0.119,0.211,0.242,0.417,0.36,0.629
		v77.78c0,4.205,3.408,7.611,7.612,7.611s7.612-3.407,7.612-7.611v-78.47l133.651,22.7c9.341,0.972,13.541-7.007,10.58-12.845
		c-2.253-4.442-1.695-3.303-5.941-12.921c0,0,35.371-10.092,47.204-13.301c5.503-1.492,8.253-7.252,6.242-12.267l-9.275-23.124
		c0,0,26.258-18.529,34.978-24.751c1.641-1.17,5.468-3.933,5.369-9.042c-0.099-5.112-3.949-8.347-5.763-9.599
		c-4.248-2.929-17.012-11.298-17.012-11.298c2.801-10.185,4.598-12.631,8.01-33.752c2.308-14.287,4.694-29.061,20.106-62.86
		c3.755-8.236,11.671-18.54,14.405-21.815C510.23,196.169,507.897,188.701,501.77,187.017z"/>
	<path style="fill:#D68005;" d="M207.524,392.143c-30.965-12.804-63.544-21.209-96.834-24.982c-4.175-0.47-7.947,2.529-8.42,6.705
		c-0.474,4.177,2.529,7.946,6.705,8.42c31.88,3.614,63.08,11.662,92.732,23.923c0.951,0.394,1.936,0.579,2.906,0.579
		c2.989,0,5.824-1.771,7.037-4.705C213.256,398.201,211.409,393.75,207.524,392.143z"/>
</g>
<g>
	<path style="fill:#E39510;" d="M284.689,319.585c-1.186,0-2.39-0.278-3.514-0.866c-3.727-1.945-5.172-6.543-3.226-10.269
		c18.068-34.62,40.9-61.155,56.874-77.318c2.953-2.989,7.773-3.02,10.764-0.064c2.99,2.955,3.018,7.774,0.064,10.764
		c-15.239,15.421-37.013,40.717-54.206,73.66C290.085,318.097,287.435,319.585,284.689,319.585z"/>
	<path style="fill:#E39510;" d="M272.547,224.718c-0.776,0-1.566-0.12-2.345-0.371c-4-1.294-6.193-5.586-4.899-9.584
		c7.21-22.282,16.6-43.031,27.909-61.673c2.18-3.595,6.862-4.742,10.455-2.559c3.595,2.18,4.739,6.862,2.559,10.455
		c-10.698,17.634-19.593,37.304-26.44,58.463C278.745,222.668,275.76,224.718,272.547,224.718z"/>
	<path style="fill:#E39510;" d="M307.387,406.791c-2.989,0-5.823-1.771-7.037-4.705c-1.607-3.885,0.241-8.336,4.124-9.943
		c37.815-15.637,77.711-24.648,118.581-26.781c4.189-0.199,7.779,3.006,7.997,7.206c0.219,4.199-3.006,7.779-7.205,7.998
		c-39.137,2.042-77.344,10.67-113.556,25.646C309.341,406.604,308.356,406.791,307.387,406.791z"/>
	<path style="fill:#E39510;" d="M484.351,201.697c-1.919-3.74-6.507-5.215-10.247-3.296c-1.451,0.745-36.058,18.658-81.265,55.101
		c-35.866,28.914-84.339,74.654-124.601,136.197c-1.98,3.026-1.586,7.024,0.97,9.581l0,0c3.42,3.42,9.11,2.813,11.758-1.235
		c39.096-59.771,86.223-104.273,121.1-132.428c44.052-35.561,78.646-53.497,78.99-53.674
		C484.795,210.023,486.27,205.437,484.351,201.697z"/>
</g>
<g>
</g>
<g>
</g>
<g>
</g>
<g>
</g>
<g>
</g>
<g>
</g>
<g>
</g>
<g>
</g>
<g>
</g>
<g>
</g>
<g>
</g>
<g>
</g>
<g>
</g>
<g>
</g>
<g>
</g>
</svg>
